<svg xmlns="http://www.w3.org/2000/svg" width="16" height="16" fill="currentColor" class="bi bi-robot" viewBox="0 0 16 16">
  <path d="M6 12.5a.5.5 0 0 1 .5-.5h3a.5.5 0 0 1 0 1h-3a.5.5 0 0 1-.5-.5ZM11 11.5a.5.5 0 0 1-.5.5h-3a.5.5 0 0 1 0-1h3a.5.5 0 0 1 .5.5ZM7.5 7a.5.5 0 0 0-1 0v1a.5.5 0 0 0 1 0v-1Zm2 0a.5.5 0 0 0-1 0v1a.5.5 0 0 0 1 0v-1Z"/>
  <path d="M8.5 1.866a1 1 0 1 0-1 0V3h-2A4.5 4.5 0 0 0 1 7.5V8a1 1 0 0 0-1 1v2a1 1 0 0 0 1 1v1.5A4.5 4.5 0 0 0 5.5 16h5a4.5 4.5 0 0 0 4.5-4.5V12a1 1 0 0 0 1-1V9a1 1 0 0 0-1-1v-.5A4.5 4.5 0 0 0 10.5 3h-2V1.866ZM14 9v2h-1v-2h1Zm-3 0v2H3V9h8Zm-1 4v-1H4v1h8Zm-2 0v-1H6v1h4Zm1-13.5a.5.5 0 0 1 .5.5V3h-1V1a.5.5 0 0 1 .5-.5ZM4.5 4h7A3.5 3.5 0 0 1 15 7.5V8h-1v-.5A2.5 2.5 0 0 0 11.5 5h-7A2.5 2.5 0 0 0 2 7.5V8H1v-.5A3.5 3.5 0 0 1 4.5 4Z"/>
</svg>